<svg version="1" xmlns="http://www.w3.org/2000/svg" width="170.667" height="170.667" viewBox="0 0 128.000000 128.000000"><path d="M56.5 7.6c-4.4 4-8.1 6.9-8.3 6.4-.2-.6-4.2-1-8.8-1H31v17.8l-7 6.5-7 6.5V65c0 21.2 0 21.3 2 19.5 2-1.8 2-1.7 2 12.6 0 10.2-.4 14.9-1.2 15.8-1 1.1-1 1.3 0 .7.7-.5 1.2-.1 1.2.9 0 .9-.4 1.4-.9 1-.5-.3-1.3 0-1.7.6-.4.7-.3.9.4.5.6-.3 1.4-.1 1.8.5.3.6 0 1.5-.7 2-1.8 1.1-1.8 1.1 13.1 1.3 6.9.1 13.1.5 13.9 1 .9.6 1.2.5.8 0-.3-.6.9-1.1 2.9-1.1 1.8-.1 3.2.2 3 .6-.3.4.7.6 2.2.4 8.5-.9 25.2-.8 25.2.1 0 .7.3.8.8.1.4-.6 4.3-1.1 8.7-1.2 6.1-.1 8.2.2 9.1 1.4.9 1.3 1.3 1.3 1.9.3.5-.9.4-1.1-.3-.6-.7.4-1.2.2-1.2-.4 0-1.3 4.2-.9 5.2.5.5.6.8.5.8-.3 0-.7.5-1 1-.7 1.3.8 1.3 1.2 1-20.5l-.1-18.5 3 2.9 3.1 3V45.3l-2.9-2.4c-1.6-1.3-7.8-6.9-13.8-12.5-5.9-5.5-15.8-14.6-21.8-20.1L64.5.2l-8 7.4z"/><path d="M88 122c-.9.6-1 1-.3 1 .6 0 1.5-.5 1.8-1 .8-1.2.4-1.2-1.5 0z"/></svg>